Video
ID                               : 0
Format                           : MPEG-4 Visual
Format profile                   : Advanced Simple@L5
Format settings, BVOP            : Yes
Format settings, QPel            : No
Format settings, GMC             : No warppoints
Format settings, Matrix          : Custom
Codec ID                         : XVID
Codec ID/Hint                    : XviD
Duration                         : 1h 50mn
Bit rate                         : 1 126 Kbps
Width                            : 680 pixels
Height                           : 314 pixels
Display aspect ratio             : 2.2:1
Frame rate                       : 25.000 fps
Color space                      : YUV
Chroma subsampling               : 4:2:0
Bit depth                        : 8 bits
Scan type                        : Progressive
Bits/(Pixel*Frame)               : 0.211
Stream size                      : 44.0 MiB (4%)
Writing library                  : XviD 1.2.1 (UTC 2008-12-04)

Audio
ID                               : 1
Format                           : MPEG Audio
Codec ID                         : 55
Codec ID/Hint                    : MP3
Duration                         : 1h 50mn
Bit rate                         : 128 Kbps
Channel(s)                       : 2 channels
Sampling rate                    : 44.1 KHz
Stream size                      : 101 MiB (9%)
Alignment                        : Aligned on interleaves
 
http://www.imdb.com/title/tt1217613/

A Marine platoon faces off against an alien invasion in Los Angeles.
Screens 
http://www.grinshare.com/img/Z085XC.png 
http://www.grinshare.com/img/Q9QGM7.png 
http://www.grinshare.com/img/M5C9T7.png